<?xml version="1.0" encoding="utf-8" standalone="no"?>
<!DOCTYPE svg PUBLIC "-//W3C//DTD SVG 1.1//EN"
  "http://www.w3.org/Graphics/SVG/1.1/DTD/svg11.dtd">
<!-- Created with matplotlib (https://matplotlib.org/) -->
<svg height="444.24pt" version="1.1" viewBox="0 0 921.6 444.24" width="921.6pt" xmlns="http://www.w3.org/2000/svg" xmlns:xlink="http://www.w3.org/1999/xlink">
 <metadata>
  <rdf:RDF xmlns:cc="http://creativecommons.org/ns#" xmlns:dc="http://purl.org/dc/elements/1.1/" xmlns:rdf="http://www.w3.org/1999/02/22-rdf-syntax-ns#">
   <cc:Work>
    <dc:type rdf:resource="http://purl.org/dc/dcmitype/StillImage"/>
    <dc:date>2023-05-23T15:36:45.835361</dc:date>
    <dc:format>image/svg+xml</dc:format>
    <dc:creator>
     <cc:Agent>
      <dc:title>Matplotlib v3.3.4, https://matplotlib.org/</dc:title>
     </cc:Agent>
    </dc:creator>
   </cc:Work>
  </rdf:RDF>
 </metadata>
 <defs>
  <style type="text/css">*{stroke-linecap:butt;stroke-linejoin:round;}</style>
 </defs>
 <g id="figure_1">
  <g id="patch_1">
   <path d="M 0 444.24 
L 921.6 444.24 
L 921.6 0 
L 0 0 
z
" style="fill:#ffffff;"/>
  </g>
  <g id="axes_1">
   <g id="patch_2">
    <path d="M 115.2 395.3736 
L 829.44 395.3736 
L 829.44 53.3088 
L 115.2 53.3088 
z
" style="fill:#ffffff;"/>
   </g>
   <g id="patch_3">
    <path clip-path="url(#p253902391b)" d="M 113.895452 395.3736 
L 116.504548 395.3736 
L 116.504548 395.371792 
L 113.895452 395.371792 
z
" style="fill:#1f77b4;"/>
   </g>
   <g id="patch_4">
    <path clip-path="url(#p253902391b)" d="M 342.191342 395.3736 
L 344.800438 395.3736 
L 344.800438 395.372696 
L 342.191342 395.372696 
z
" style="fill:#1f77b4;"/>
   </g>
   <g id="patch_5">
    <path clip-path="url(#p253902391b)" d="M 404.15737 395.3736 
L 406.766466 395.3736 
L 406.766466 395.371792 
L 404.15737 395.371792 
z
" style="fill:#1f77b4;"/>
   </g>
   <g id="patch_6">
    <path clip-path="url(#p253902391b)" d="M 426.986959 395.3736 
L 429.596055 395.3736 
L 429.596055 395.372696 
L 426.986959 395.372696 
z
" style="fill:#1f77b4;"/>
   </g>
   <g id="patch_7">
    <path clip-path="url(#p253902391b)" d="M 430.248329 395.3736 
L 432.857425 395.3736 
L 432.857425 395.372696 
L 430.248329 395.372696 
z
" style="fill:#1f77b4;"/>
   </g>
   <g id="patch_8">
    <path clip-path="url(#p253902391b)" d="M 456.339288 395.3736 
L 458.948384 395.3736 
L 458.948384 395.370888 
L 456.339288 395.370888 
z
" style="fill:#1f77b4;"/>
   </g>
   <g id="patch_9">
    <path clip-path="url(#p253902391b)" d="M 462.862027 395.3736 
L 465.471123 395.3736 
L 465.471123 395.372696 
L 462.862027 395.372696 
z
" style="fill:#1f77b4;"/>
   </g>
   <g id="patch_10">
    <path clip-path="url(#p253902391b)" d="M 498.737096 395.3736 
L 501.346192 395.3736 
L 501.346192 395.372696 
L 498.737096 395.372696 
z
" style="fill:#1f77b4;"/>
   </g>
   <g id="patch_11">
    <path clip-path="url(#p253902391b)" d="M 511.782575 395.3736 
L 514.391671 395.3736 
L 514.391671 395.371792 
L 511.782575 395.371792 
z
" style="fill:#1f77b4;"/>
   </g>
   <g id="patch_12">
    <path clip-path="url(#p253902391b)" d="M 518.305315 395.3736 
L 520.914411 395.3736 
L 520.914411 395.372696 
L 518.305315 395.372696 
z
" style="fill:#1f77b4;"/>
   </g>
   <g id="patch_13">
    <path clip-path="url(#p253902391b)" d="M 547.657644 395.3736 
L 550.26674 395.3736 
L 550.26674 395.369079 
L 547.657644 395.369079 
z
" style="fill:#1f77b4;"/>
   </g>
   <g id="patch_14">
    <path clip-path="url(#p253902391b)" d="M 567.225863 395.3736 
L 569.834959 395.3736 
L 569.834959 395.372696 
L 567.225863 395.372696 
z
" style="fill:#1f77b4;"/>
   </g>
   <g id="patch_15">
    <path clip-path="url(#p253902391b)" d="M 573.748603 395.3736 
L 576.357699 395.3736 
L 576.357699 395.137618 
L 573.748603 395.137618 
z
" style="fill:#1f77b4;"/>
   </g>
   <g id="patch_16">
    <path clip-path="url(#p253902391b)" d="M 577.009973 395.3736 
L 579.619068 395.3736 
L 579.619068 394.476686 
L 577.009973 394.476686 
z
" style="fill:#1f77b4;"/>
   </g>
   <g id="patch_17">
    <path clip-path="url(#p253902391b)" d="M 580.271342 395.3736 
L 582.880438 395.3736 
L 582.880438 394.306706 
L 580.271342 394.306706 
z
" style="fill:#1f77b4;"/>
   </g>
   <g id="patch_18">
    <path clip-path="url(#p253902391b)" d="M 583.532712 395.3736 
L 586.141808 395.3736 
L 586.141808 394.319364 
L 583.532712 394.319364 
z
" style="fill:#1f77b4;"/>
   </g>
   <g id="patch_19">
    <path clip-path="url(#p253902391b)" d="M 586.794082 395.3736 
L 589.403178 395.3736 
L 589.403178 394.346489 
L 586.794082 394.346489 
z
" style="fill:#1f77b4;"/>
   </g>
   <g id="patch_20">
    <path clip-path="url(#p253902391b)" d="M 590.055452 395.3736 
L 592.664548 395.3736 
L 592.664548 393.904361 
L 590.055452 393.904361 
z
" style="fill:#1f77b4;"/>
   </g>
   <g id="patch_21">
    <path clip-path="url(#p253902391b)" d="M 593.316822 395.3736 
L 595.925918 395.3736 
L 595.925918 393.709065 
L 593.316822 393.709065 
z
" style="fill:#1f77b4;"/>
   </g>
   <g id="patch_22">
    <path clip-path="url(#p253902391b)" d="M 596.578192 395.3736 
L 599.187288 395.3736 
L 599.187288 393.648487 
L 596.578192 393.648487 
z
" style="fill:#1f77b4;"/>
   </g>
   <g id="patch_23">
    <path clip-path="url(#p253902391b)" d="M 599.839562 395.3736 
L 602.448658 395.3736 
L 602.448658 393.64035 
L 599.839562 393.64035 
z
" style="fill:#1f77b4;"/>
   </g>
   <g id="patch_24">
    <path clip-path="url(#p253902391b)" d="M 603.100932 395.3736 
L 605.710027 395.3736 
L 605.710027 393.554456 
L 603.100932 393.554456 
z
" style="fill:#1f77b4;"/>
   </g>
   <g id="patch_25">
    <path clip-path="url(#p253902391b)" d="M 606.362301 395.3736 
L 608.971397 395.3736 
L 608.971397 393.641254 
L 606.362301 393.641254 
z
" style="fill:#1f77b4;"/>
   </g>
   <g id="patch_26">
    <path clip-path="url(#p253902391b)" d="M 609.623671 395.3736 
L 612.232767 395.3736 
L 612.232767 393.594238 
L 609.623671 393.594238 
z
" style="fill:#1f77b4;"/>
   </g>
   <g id="patch_27">
    <path clip-path="url(#p253902391b)" d="M 612.885041 395.3736 
L 615.494137 395.3736 
L 615.494137 393.384476 
L 612.885041 393.384476 
z
" style="fill:#1f77b4;"/>
   </g>
   <g id="patch_28">
    <path clip-path="url(#p253902391b)" d="M 616.146411 395.3736 
L 618.755507 395.3736 
L 618.755507 393.524619 
L 616.146411 393.524619 
z
" style="fill:#1f77b4;"/>
   </g>
   <g id="patch_29">
    <path clip-path="url(#p253902391b)" d="M 619.407781 395.3736 
L 622.016877 395.3736 
L 622.016877 393.549031 
L 619.407781 393.549031 
z
" style="fill:#1f77b4;"/>
   </g>
   <g id="patch_30">
    <path clip-path="url(#p253902391b)" d="M 622.669151 395.3736 
L 625.278247 395.3736 
L 625.278247 393.404367 
L 622.669151 393.404367 
z
" style="fill:#1f77b4;"/>
   </g>
   <g id="patch_31">
    <path clip-path="url(#p253902391b)" d="M 625.930521 395.3736 
L 628.539616 395.3736 
L 628.539616 393.350119 
L 625.930521 393.350119 
z
" style="fill:#1f77b4;"/>
   </g>
   <g id="patch_32">
    <path clip-path="url(#p253902391b)" d="M 629.19189 395.3736 
L 631.800986 395.3736 
L 631.800986 393.071641 
L 629.19189 393.071641 
z
" style="fill:#1f77b4;"/>
   </g>
   <g id="patch_33">
    <path clip-path="url(#p253902391b)" d="M 632.45326 395.3736 
L 635.062356 395.3736 
L 635.062356 392.558086 
L 632.45326 392.558086 
z
" style="fill:#1f77b4;"/>
   </g>
   <g id="patch_34">
    <path clip-path="url(#p253902391b)" d="M 635.71463 395.3736 
L 638.323726 395.3736 
L 638.323726 391.317596 
L 635.71463 391.317596 
z
" style="fill:#1f77b4;"/>
   </g>
   <g id="patch_35">
    <path clip-path="url(#p253902391b)" d="M 638.976 395.3736 
L 641.585096 395.3736 
L 641.585096 376.368425 
L 638.976 376.368425 
z
" style="fill:#1f77b4;"/>
   </g>
   <g id="patch_36">
    <path clip-path="url(#p253902391b)" d="M 642.23737 395.3736 
L 644.846466 395.3736 
L 644.846466 357.202312 
L 642.23737 357.202312 
z
" style="fill:#1f77b4;"/>
   </g>
   <g id="patch_37">
    <path clip-path="url(#p253902391b)" d="M 645.49874 395.3736 
L 648.107836 395.3736 
L 648.107836 349.672574 
L 645.49874 349.672574 
z
" style="fill:#1f77b4;"/>
   </g>
   <g id="patch_38">
    <path clip-path="url(#p253902391b)" d="M 648.76011 395.3736 
L 651.369205 395.3736 
L 651.369205 344.948405 
L 648.76011 344.948405 
z
" style="fill:#1f77b4;"/>
   </g>
   <g id="patch_39">
    <path clip-path="url(#p253902391b)" d="M 652.021479 395.3736 
L 654.630575 395.3736 
L 654.630575 343.527086 
L 652.021479 343.527086 
z
" style="fill:#1f77b4;"/>
   </g>
   <g id="patch_40">
    <path clip-path="url(#p253902391b)" d="M 655.282849 395.3736 
L 657.891945 395.3736 
L 657.891945 343.371572 
L 655.282849 343.371572 
z
" style="fill:#1f77b4;"/>
   </g>
   <g id="patch_41">
    <path clip-path="url(#p253902391b)" d="M 658.544219 395.3736 
L 661.153315 395.3736 
L 661.153315 341.40234 
L 658.544219 341.40234 
z
" style="fill:#1f77b4;"/>
   </g>
   <g id="patch_42">
    <path clip-path="url(#p253902391b)" d="M 661.805589 395.3736 
L 664.414685 395.3736 
L 664.414685 337.660074 
L 661.805589 337.660074 
z
" style="fill:#1f77b4;"/>
   </g>
   <g id="patch_43">
    <path clip-path="url(#p253902391b)" d="M 665.066959 395.3736 
L 667.676055 395.3736 
L 667.676055 335.254138 
L 665.066959 335.254138 
z
" style="fill:#1f77b4;"/>
   </g>
   <g id="patch_44">
    <path clip-path="url(#p253902391b)" d="M 668.328329 395.3736 
L 670.937425 395.3736 
L 670.937425 333.912384 
L 668.328329 333.912384 
z
" style="fill:#1f77b4;"/>
   </g>
   <g id="patch_45">
    <path clip-path="url(#p253902391b)" d="M 671.589699 395.3736 
L 674.198795 395.3736 
L 674.198795 331.318386 
L 671.589699 331.318386 
z
" style="fill:#1f77b4;"/>
   </g>
   <g id="patch_46">
    <path clip-path="url(#p253902391b)" d="M 674.851068 395.3736 
L 677.460164 395.3736 
L 677.460164 328.808473 
L 674.851068 328.808473 
z
" style="fill:#1f77b4;"/>
   </g>
   <g id="patch_47">
    <path clip-path="url(#p253902391b)" d="M 678.112438 395.3736 
L 680.721534 395.3736 
L 680.721534 326.836528 
L 678.112438 326.836528 
z
" style="fill:#1f77b4;"/>
   </g>
   <g id="patch_48">
    <path clip-path="url(#p253902391b)" d="M 681.373808 395.3736 
L 683.982904 395.3736 
L 683.982904 323.192814 
L 681.373808 323.192814 
z
" style="fill:#1f77b4;"/>
   </g>
   <g id="patch_49">
    <path clip-path="url(#p253902391b)" d="M 684.635178 395.3736 
L 687.244274 395.3736 
L 687.244274 318.835729 
L 684.635178 318.835729 
z
" style="fill:#1f77b4;"/>
   </g>
   <g id="patch_50">
    <path clip-path="url(#p253902391b)" d="M 687.896548 395.3736 
L 690.505644 395.3736 
L 690.505644 316.637747 
L 687.896548 316.637747 
z
" style="fill:#1f77b4;"/>
   </g>
   <g id="patch_51">
    <path clip-path="url(#p253902391b)" d="M 691.157918 395.3736 
L 693.767014 395.3736 
L 693.767014 312.354802 
L 691.157918 312.354802 
z
" style="fill:#1f77b4;"/>
   </g>
   <g id="patch_52">
    <path clip-path="url(#p253902391b)" d="M 694.419288 395.3736 
L 697.028384 395.3736 
L 697.028384 307.163188 
L 694.419288 307.163188 
z
" style="fill:#1f77b4;"/>
   </g>
   <g id="patch_53">
    <path clip-path="url(#p253902391b)" d="M 697.680658 395.3736 
L 700.289753 395.3736 
L 700.289753 301.890202 
L 697.680658 301.890202 
z
" style="fill:#1f77b4;"/>
   </g>
   <g id="patch_54">
    <path clip-path="url(#p253902391b)" d="M 700.942027 395.3736 
L 703.551123 395.3736 
L 703.551123 296.41559 
L 700.942027 296.41559 
z
" style="fill:#1f77b4;"/>
   </g>
   <g id="patch_55">
    <path clip-path="url(#p253902391b)" d="M 704.203397 395.3736 
L 706.812493 395.3736 
L 706.812493 294.800783 
L 704.203397 294.800783 
z
" style="fill:#1f77b4;"/>
   </g>
   <g id="patch_56">
    <path clip-path="url(#p253902391b)" d="M 707.464767 395.3736 
L 710.073863 395.3736 
L 710.073863 293.920144 
L 707.464767 293.920144 
z
" style="fill:#1f77b4;"/>
   </g>
   <g id="patch_57">
    <path clip-path="url(#p253902391b)" d="M 710.726137 395.3736 
L 713.335233 395.3736 
L 713.335233 291.485275 
L 710.726137 291.485275 
z
" style="fill:#1f77b4;"/>
   </g>
   <g id="patch_58">
    <path clip-path="url(#p253902391b)" d="M 713.987507 395.3736 
L 716.596603 395.3736 
L 716.596603 287.271045 
L 713.987507 287.271045 
z
" style="fill:#1f77b4;"/>
   </g>
   <g id="patch_59">
    <path clip-path="url(#p253902391b)" d="M 717.248877 395.3736 
L 719.857973 395.3736 
L 719.857973 283.253919 
L 717.248877 283.253919 
z
" style="fill:#1f77b4;"/>
   </g>
   <g id="patch_60">
    <path clip-path="url(#p253902391b)" d="M 720.510247 395.3736 
L 723.119342 395.3736 
L 723.119342 280.737677 
L 720.510247 280.737677 
z
" style="fill:#1f77b4;"/>
   </g>
   <g id="patch_61">
    <path clip-path="url(#p253902391b)" d="M 723.771616 395.3736 
L 726.380712 395.3736 
L 726.380712 282.187929 
L 723.771616 282.187929 
z
" style="fill:#1f77b4;"/>
   </g>
   <g id="patch_62">
    <path clip-path="url(#p253902391b)" d="M 727.032986 395.3736 
L 729.642082 395.3736 
L 729.642082 277.824515 
L 727.032986 277.824515 
z
" style="fill:#1f77b4;"/>
   </g>
   <g id="patch_63">
    <path clip-path="url(#p253902391b)" d="M 730.294356 395.3736 
L 732.903452 395.3736 
L 732.903452 269.430412 
L 730.294356 269.430412 
z
" style="fill:#1f77b4;"/>
   </g>
   <g id="patch_64">
    <path clip-path="url(#p253902391b)" d="M 733.555726 395.3736 
L 736.164822 395.3736 
L 736.164822 268.238746 
L 733.555726 268.238746 
z
" style="fill:#1f77b4;"/>
   </g>
   <g id="patch_65">
    <path clip-path="url(#p253902391b)" d="M 736.817096 395.3736 
L 739.426192 395.3736 
L 739.426192 265.556141 
L 736.817096 265.556141 
z
" style="fill:#1f77b4;"/>
   </g>
   <g id="patch_66">
    <path clip-path="url(#p253902391b)" d="M 740.078466 395.3736 
L 742.687562 395.3736 
L 742.687562 263.763217 
L 740.078466 263.763217 
z
" style="fill:#1f77b4;"/>
   </g>
   <g id="patch_67">
    <path clip-path="url(#p253902391b)" d="M 743.339836 395.3736 
L 745.948932 395.3736 
L 745.948932 261.427805 
L 743.339836 261.427805 
z
" style="fill:#1f77b4;"/>
   </g>
   <g id="patch_68">
    <path clip-path="url(#p253902391b)" d="M 746.601205 395.3736 
L 749.210301 395.3736 
L 749.210301 256.698211 
L 746.601205 256.698211 
z
" style="fill:#1f77b4;"/>
   </g>
   <g id="patch_69">
    <path clip-path="url(#p253902391b)" d="M 749.862575 395.3736 
L 752.471671 395.3736 
L 752.471671 254.76876 
L 749.862575 254.76876 
z
" style="fill:#1f77b4;"/>
   </g>
   <g id="patch_70">
    <path clip-path="url(#p253902391b)" d="M 753.123945 395.3736 
L 755.733041 395.3736 
L 755.733041 249.012055 
L 753.123945 249.012055 
z
" style="fill:#1f77b4;"/>
   </g>
   <g id="patch_71">
    <path clip-path="url(#p253902391b)" d="M 756.385315 395.3736 
L 758.994411 395.3736 
L 758.994411 245.880089 
L 756.385315 245.880089 
z
" style="fill:#1f77b4;"/>
   </g>
   <g id="patch_72">
    <path clip-path="url(#p253902391b)" d="M 759.646685 395.3736 
L 762.255781 395.3736 
L 762.255781 241.363874 
L 759.646685 241.363874 
z
" style="fill:#1f77b4;"/>
   </g>
   <g id="patch_73">
    <path clip-path="url(#p253902391b)" d="M 762.908055 395.3736 
L 765.517151 395.3736 
L 765.517151 232.288044 
L 762.908055 232.288044 
z
" style="fill:#1f77b4;"/>
   </g>
   <g id="patch_74">
    <path clip-path="url(#p253902391b)" d="M 766.169425 395.3736 
L 768.778521 395.3736 
L 768.778521 224.171514 
L 766.169425 224.171514 
z
" style="fill:#1f77b4;"/>
   </g>
   <g id="patch_75">
    <path clip-path="url(#p253902391b)" d="M 769.430795 395.3736 
L 772.03989 395.3736 
L 772.03989 214.274719 
L 769.430795 214.274719 
z
" style="fill:#1f77b4;"/>
   </g>
   <g id="patch_76">
    <path clip-path="url(#p253902391b)" d="M 772.692164 395.3736 
L 775.30126 395.3736 
L 775.30126 204.641934 
L 772.692164 204.641934 
z
" style="fill:#1f77b4;"/>
   </g>
   <g id="patch_77">
    <path clip-path="url(#p253902391b)" d="M 775.953534 395.3736 
L 778.56263 395.3736 
L 778.56263 195.30571 
L 775.953534 195.30571 
z
" style="fill:#1f77b4;"/>
   </g>
   <g id="patch_78">
    <path clip-path="url(#p253902391b)" d="M 779.214904 395.3736 
L 781.824 395.3736 
L 781.824 185.219947 
L 779.214904 185.219947 
z
" style="fill:#1f77b4;"/>
   </g>
   <g id="patch_79">
    <path clip-path="url(#p253902391b)" d="M 782.476274 395.3736 
L 785.08537 395.3736 
L 785.08537 178.097076 
L 782.476274 178.097076 
z
" style="fill:#1f77b4;"/>
   </g>
   <g id="patch_80">
    <path clip-path="url(#p253902391b)" d="M 785.737644 395.3736 
L 788.34674 395.3736 
L 788.34674 166.629776 
L 785.737644 166.629776 
z
" style="fill:#1f77b4;"/>
   </g>
   <g id="patch_81">
    <path clip-path="url(#p253902391b)" d="M 788.999014 395.3736 
L 791.60811 395.3736 
L 791.60811 147.386811 
L 788.999014 147.386811 
z
" style="fill:#1f77b4;"/>
   </g>
   <g id="patch_82">
    <path clip-path="url(#p253902391b)" d="M 792.260384 395.3736 
L 794.869479 395.3736 
L 794.869479 121.264189 
L 792.260384 121.264189 
z
" style="fill:#1f77b4;"/>
   </g>
   <g id="patch_83">
    <path clip-path="url(#p253902391b)" d="M 795.521753 395.3736 
L 798.130849 395.3736 
L 798.130849 100.356689 
L 795.521753 100.356689 
z
" style="fill:#1f77b4;"/>
   </g>
   <g id="patch_84">
    <path clip-path="url(#p253902391b)" d="M 798.783123 395.3736 
L 801.392219 395.3736 
L 801.392219 90.628969 
L 798.783123 90.628969 
z
" style="fill:#1f77b4;"/>
   </g>
   <g id="patch_85">
    <path clip-path="url(#p253902391b)" d="M 802.044493 395.3736 
L 804.653589 395.3736 
L 804.653589 84.963582 
L 802.044493 84.963582 
z
" style="fill:#1f77b4;"/>
   </g>
   <g id="patch_86">
    <path clip-path="url(#p253902391b)" d="M 805.305863 395.3736 
L 807.914959 395.3736 
L 807.914959 102.344908 
L 805.305863 102.344908 
z
" style="fill:#1f77b4;"/>
   </g>
   <g id="patch_87">
    <path clip-path="url(#p253902391b)" d="M 808.567233 395.3736 
L 811.176329 395.3736 
L 811.176329 102.561 
L 808.567233 102.561 
z
" style="fill:#1f77b4;"/>
   </g>
   <g id="patch_88">
    <path clip-path="url(#p253902391b)" d="M 811.828603 395.3736 
L 814.437699 395.3736 
L 814.437699 90.769111 
L 811.828603 90.769111 
z
" style="fill:#1f77b4;"/>
   </g>
   <g id="patch_89">
    <path clip-path="url(#p253902391b)" d="M 815.089973 395.3736 
L 817.699068 395.3736 
L 817.699068 82.154397 
L 815.089973 82.154397 
z
" style="fill:#1f77b4;"/>
   </g>
   <g id="patch_90">
    <path clip-path="url(#p253902391b)" d="M 818.351342 395.3736 
L 820.960438 395.3736 
L 820.960438 109.19292 
L 818.351342 109.19292 
z
" style="fill:#1f77b4;"/>
   </g>
   <g id="patch_91">
    <path clip-path="url(#p253902391b)" d="M 821.612712 395.3736 
L 824.221808 395.3736 
L 824.221808 165.277172 
L 821.612712 165.277172 
z
" style="fill:#1f77b4;"/>
   </g>
   <g id="patch_92">
    <path clip-path="url(#p253902391b)" d="M 824.874082 395.3736 
L 827.483178 395.3736 
L 827.483178 310.141449 
L 824.874082 310.141449 
z
" style="fill:#1f77b4;"/>
   </g>
   <g id="patch_93">
    <path clip-path="url(#p253902391b)" d="M 113.895452 395.3736 
L 116.504548 395.3736 
L 116.504548 395.371792 
L 113.895452 395.371792 
z
" style="fill:#ff7f0e;"/>
   </g>
   <g id="patch_94">
    <path clip-path="url(#p253902391b)" d="M 293.270795 395.3736 
L 295.87989 395.3736 
L 295.87989 395.372696 
L 293.270795 395.372696 
z
" style="fill:#ff7f0e;"/>
   </g>
   <g id="patch_95">
    <path clip-path="url(#p253902391b)" d="M 342.191342 395.3736 
L 344.800438 395.3736 
L 344.800438 395.370888 
L 342.191342 395.370888 
z
" style="fill:#ff7f0e;"/>
   </g>
   <g id="patch_96">
    <path clip-path="url(#p253902391b)" d="M 400.896 395.3736 
L 403.505096 395.3736 
L 403.505096 395.371792 
L 400.896 395.371792 
z
" style="fill:#ff7f0e;"/>
   </g>
   <g id="patch_97">
    <path clip-path="url(#p253902391b)" d="M 404.15737 395.3736 
L 406.766466 395.3736 
L 406.766466 395.371792 
L 404.15737 395.371792 
z
" style="fill:#ff7f0e;"/>
   </g>
   <g id="patch_98">
    <path clip-path="url(#p253902391b)" d="M 426.986959 395.3736 
L 429.596055 395.3736 
L 429.596055 395.372696 
L 426.986959 395.372696 
z
" style="fill:#ff7f0e;"/>
   </g>
   <g id="patch_99">
    <path clip-path="url(#p253902391b)" d="M 430.248329 395.3736 
L 432.857425 395.3736 
L 432.857425 395.372696 
L 430.248329 395.372696 
z
" style="fill:#ff7f0e;"/>
   </g>
   <g id="patch_100">
    <path clip-path="url(#p253902391b)" d="M 446.555178 395.3736 
L 449.164274 395.3736 
L 449.164274 395.372696 
L 446.555178 395.372696 
z
" style="fill:#ff7f0e;"/>
   </g>
   <g id="patch_101">
    <path clip-path="url(#p253902391b)" d="M 456.339288 395.3736 
L 458.948384 395.3736 
L 458.948384 395.372696 
L 456.339288 395.372696 
z
" style="fill:#ff7f0e;"/>
   </g>
   <g id="patch_102">
    <path clip-path="url(#p253902391b)" d="M 498.737096 395.3736 
L 501.346192 395.3736 
L 501.346192 395.372696 
L 498.737096 395.372696 
z
" style="fill:#ff7f0e;"/>
   </g>
   <g id="patch_103">
    <path clip-path="url(#p253902391b)" d="M 511.782575 395.3736 
L 514.391671 395.3736 
L 514.391671 395.369079 
L 511.782575 395.369079 
z
" style="fill:#ff7f0e;"/>
   </g>
   <g id="patch_104">
    <path clip-path="url(#p253902391b)" d="M 518.305315 395.3736 
L 520.914411 395.3736 
L 520.914411 395.372696 
L 518.305315 395.372696 
z
" style="fill:#ff7f0e;"/>
   </g>
   <g id="patch_105">
    <path clip-path="url(#p253902391b)" d="M 534.612164 395.3736 
L 537.22126 395.3736 
L 537.22126 395.372696 
L 534.612164 395.372696 
z
" style="fill:#ff7f0e;"/>
   </g>
   <g id="patch_106">
    <path clip-path="url(#p253902391b)" d="M 547.657644 395.3736 
L 550.26674 395.3736 
L 550.26674 395.369983 
L 547.657644 395.369983 
z
" style="fill:#ff7f0e;"/>
   </g>
   <g id="patch_107">
    <path clip-path="url(#p253902391b)" d="M 563.964493 395.3736 
L 566.573589 395.3736 
L 566.573589 395.372696 
L 563.964493 395.372696 
z
" style="fill:#ff7f0e;"/>
   </g>
   <g id="patch_108">
    <path clip-path="url(#p253902391b)" d="M 567.225863 395.3736 
L 569.834959 395.3736 
L 569.834959 395.372696 
L 567.225863 395.372696 
z
" style="fill:#ff7f0e;"/>
   </g>
   <g id="patch_109">
    <path clip-path="url(#p253902391b)" d="M 573.748603 395.3736 
L 576.357699 395.3736 
L 576.357699 394.697298 
L 573.748603 394.697298 
z
" style="fill:#ff7f0e;"/>
   </g>
   <g id="patch_110">
    <path clip-path="url(#p253902391b)" d="M 577.009973 395.3736 
L 579.619068 395.3736 
L 579.619068 393.021913 
L 577.009973 393.021913 
z
" style="fill:#ff7f0e;"/>
   </g>
   <g id="patch_111">
    <path clip-path="url(#p253902391b)" d="M 580.271342 395.3736 
L 582.880438 395.3736 
L 582.880438 392.491179 
L 580.271342 392.491179 
z
" style="fill:#ff7f0e;"/>
   </g>
   <g id="patch_112">
    <path clip-path="url(#p253902391b)" d="M 583.532712 395.3736 
L 586.141808 395.3736 
L 586.141808 392.2778 
L 583.532712 392.2778 
z
" style="fill:#ff7f0e;"/>
   </g>
   <g id="patch_113">
    <path clip-path="url(#p253902391b)" d="M 586.794082 395.3736 
L 589.403178 395.3736 
L 589.403178 392.42608 
L 586.794082 392.42608 
z
" style="fill:#ff7f0e;"/>
   </g>
   <g id="patch_114">
    <path clip-path="url(#p253902391b)" d="M 590.055452 395.3736 
L 592.664548 395.3736 
L 592.664548 390.521946 
L 590.055452 390.521946 
z
" style="fill:#ff7f0e;"/>
   </g>
   <g id="patch_115">
    <path clip-path="url(#p253902391b)" d="M 593.316822 395.3736 
L 595.925918 395.3736 
L 595.925918 389.497547 
L 593.316822 389.497547 
z
" style="fill:#ff7f0e;"/>
   </g>
   <g id="patch_116">
    <path clip-path="url(#p253902391b)" d="M 596.578192 395.3736 
L 599.187288 395.3736 
L 599.187288 389.215453 
L 596.578192 389.215453 
z
" style="fill:#ff7f0e;"/>
   </g>
   <g id="patch_117">
    <path clip-path="url(#p253902391b)" d="M 599.839562 395.3736 
L 602.448658 395.3736 
L 602.448658 389.379104 
L 599.839562 389.379104 
z
" style="fill:#ff7f0e;"/>
   </g>
   <g id="patch_118">
    <path clip-path="url(#p253902391b)" d="M 603.100932 395.3736 
L 605.710027 395.3736 
L 605.710027 389.250715 
L 603.100932 389.250715 
z
" style="fill:#ff7f0e;"/>
   </g>
   <g id="patch_119">
    <path clip-path="url(#p253902391b)" d="M 606.362301 395.3736 
L 608.971397 395.3736 
L 608.971397 389.269702 
L 606.362301 389.269702 
z
" style="fill:#ff7f0e;"/>
   </g>
   <g id="patch_120">
    <path clip-path="url(#p253902391b)" d="M 609.623671 395.3736 
L 612.232767 395.3736 
L 612.232767 389.70098 
L 609.623671 389.70098 
z
" style="fill:#ff7f0e;"/>
   </g>
   <g id="patch_121">
    <path clip-path="url(#p253902391b)" d="M 612.885041 395.3736 
L 615.494137 395.3736 
L 615.494137 389.185616 
L 612.885041 389.185616 
z
" style="fill:#ff7f0e;"/>
   </g>
   <g id="patch_122">
    <path clip-path="url(#p253902391b)" d="M 616.146411 395.3736 
L 618.755507 395.3736 
L 618.755507 389.362829 
L 616.146411 389.362829 
z
" style="fill:#ff7f0e;"/>
   </g>
   <g id="patch_123">
    <path clip-path="url(#p253902391b)" d="M 619.407781 395.3736 
L 622.016877 395.3736 
L 622.016877 389.482177 
L 619.407781 389.482177 
z
" style="fill:#ff7f0e;"/>
   </g>
   <g id="patch_124">
    <path clip-path="url(#p253902391b)" d="M 622.669151 395.3736 
L 625.278247 395.3736 
L 625.278247 389.361925 
L 622.669151 389.361925 
z
" style="fill:#ff7f0e;"/>
   </g>
   <g id="patch_125">
    <path clip-path="url(#p253902391b)" d="M 625.930521 395.3736 
L 628.539616 395.3736 
L 628.539616 389.031007 
L 625.930521 389.031007 
z
" style="fill:#ff7f0e;"/>
   </g>
   <g id="patch_126">
    <path clip-path="url(#p253902391b)" d="M 629.19189 395.3736 
L 631.800986 395.3736 
L 631.800986 388.502985 
L 629.19189 388.502985 
z
" style="fill:#ff7f0e;"/>
   </g>
   <g id="patch_127">
    <path clip-path="url(#p253902391b)" d="M 632.45326 395.3736 
L 635.062356 395.3736 
L 635.062356 386.416213 
L 632.45326 386.416213 
z
" style="fill:#ff7f0e;"/>
   </g>
   <g id="patch_128">
    <path clip-path="url(#p253902391b)" d="M 635.71463 395.3736 
L 638.323726 395.3736 
L 638.323726 384.359278 
L 635.71463 384.359278 
z
" style="fill:#ff7f0e;"/>
   </g>
   <g id="patch_129">
    <path clip-path="url(#p253902391b)" d="M 638.976 395.3736 
L 641.585096 395.3736 
L 641.585096 370.972475 
L 638.976 370.972475 
z
" style="fill:#ff7f0e;"/>
   </g>
   <g id="patch_130">
    <path clip-path="url(#p253902391b)" d="M 642.23737 395.3736 
L 644.846466 395.3736 
L 644.846466 354.958219 
L 642.23737 354.958219 
z
" style="fill:#ff7f0e;"/>
   </g>
   <g id="patch_131">
    <path clip-path="url(#p253902391b)" d="M 645.49874 395.3736 
L 648.107836 395.3736 
L 648.107836 348.02793 
L 645.49874 348.02793 
z
" style="fill:#ff7f0e;"/>
   </g>
   <g id="patch_132">
    <path clip-path="url(#p253902391b)" d="M 648.76011 395.3736 
L 651.369205 395.3736 
L 651.369205 343.870661 
L 648.76011 343.870661 
z
" style="fill:#ff7f0e;"/>
   </g>
   <g id="patch_133">
    <path clip-path="url(#p253902391b)" d="M 652.021479 395.3736 
L 654.630575 395.3736 
L 654.630575 341.776656 
L 652.021479 341.776656 
z
" style="fill:#ff7f0e;"/>
   </g>
   <g id="patch_134">
    <path clip-path="url(#p253902391b)" d="M 655.282849 395.3736 
L 657.891945 395.3736 
L 657.891945 342.518057 
L 655.282849 342.518057 
z
" style="fill:#ff7f0e;"/>
   </g>
   <g id="patch_135">
    <path clip-path="url(#p253902391b)" d="M 658.544219 395.3736 
L 661.153315 395.3736 
L 661.153315 340.043406 
L 658.544219 340.043406 
z
" style="fill:#ff7f0e;"/>
   </g>
   <g id="patch_136">
    <path clip-path="url(#p253902391b)" d="M 661.805589 395.3736 
L 664.414685 395.3736 
L 664.414685 337.017225 
L 661.805589 337.017225 
z
" style="fill:#ff7f0e;"/>
   </g>
   <g id="patch_137">
    <path clip-path="url(#p253902391b)" d="M 665.066959 395.3736 
L 667.676055 395.3736 
L 667.676055 335.00369 
L 665.066959 335.00369 
z
" style="fill:#ff7f0e;"/>
   </g>
   <g id="patch_138">
    <path clip-path="url(#p253902391b)" d="M 668.328329 395.3736 
L 670.937425 395.3736 
L 670.937425 333.194491 
L 668.328329 333.194491 
z
" style="fill:#ff7f0e;"/>
   </g>
   <g id="patch_139">
    <path clip-path="url(#p253902391b)" d="M 671.589699 395.3736 
L 674.198795 395.3736 
L 674.198795 331.095965 
L 671.589699 331.095965 
z
" style="fill:#ff7f0e;"/>
   </g>
   <g id="patch_140">
    <path clip-path="url(#p253902391b)" d="M 674.851068 395.3736 
L 677.460164 395.3736 
L 677.460164 329.450417 
L 674.851068 329.450417 
z
" style="fill:#ff7f0e;"/>
   </g>
   <g id="patch_141">
    <path clip-path="url(#p253902391b)" d="M 678.112438 395.3736 
L 680.721534 395.3736 
L 680.721534 327.397099 
L 678.112438 327.397099 
z
" style="fill:#ff7f0e;"/>
   </g>
   <g id="patch_142">
    <path clip-path="url(#p253902391b)" d="M 681.373808 395.3736 
L 683.982904 395.3736 
L 683.982904 324.346506 
L 681.373808 324.346506 
z
" style="fill:#ff7f0e;"/>
   </g>
   <g id="patch_143">
    <path clip-path="url(#p253902391b)" d="M 684.635178 395.3736 
L 687.244274 395.3736 
L 687.244274 319.417096 
L 684.635178 319.417096 
z
" style="fill:#ff7f0e;"/>
   </g>
   <g id="patch_144">
    <path clip-path="url(#p253902391b)" d="M 687.896548 395.3736 
L 690.505644 395.3736 
L 690.505644 318.740793 
L 687.896548 318.740793 
z
" style="fill:#ff7f0e;"/>
   </g>
   <g id="patch_145">
    <path clip-path="url(#p253902391b)" d="M 691.157918 395.3736 
L 693.767014 395.3736 
L 693.767014 314.968691 
L 691.157918 314.968691 
z
" style="fill:#ff7f0e;"/>
   </g>
   <g id="patch_146">
    <path clip-path="url(#p253902391b)" d="M 694.419288 395.3736 
L 697.028384 395.3736 
L 697.028384 310.504012 
L 694.419288 310.504012 
z
" style="fill:#ff7f0e;"/>
   </g>
   <g id="patch_147">
    <path clip-path="url(#p253902391b)" d="M 697.680658 395.3736 
L 700.289753 395.3736 
L 700.289753 305.962481 
L 697.680658 305.962481 
z
" style="fill:#ff7f0e;"/>
   </g>
   <g id="patch_148">
    <path clip-path="url(#p253902391b)" d="M 700.942027 395.3736 
L 703.551123 395.3736 
L 703.551123 301.131622 
L 700.942027 301.131622 
z
" style="fill:#ff7f0e;"/>
   </g>
   <g id="patch_149">
    <path clip-path="url(#p253902391b)" d="M 704.203397 395.3736 
L 706.812493 395.3736 
L 706.812493 299.403797 
L 704.203397 299.403797 
z
" style="fill:#ff7f0e;"/>
   </g>
   <g id="patch_150">
    <path clip-path="url(#p253902391b)" d="M 707.464767 395.3736 
L 710.073863 395.3736 
L 710.073863 298.994218 
L 707.464767 298.994218 
z
" style="fill:#ff7f0e;"/>
   </g>
   <g id="patch_151">
    <path clip-path="url(#p253902391b)" d="M 710.726137 395.3736 
L 713.335233 395.3736 
L 713.335233 297.530404 
L 710.726137 297.530404 
z
" style="fill:#ff7f0e;"/>
   </g>
   <g id="patch_152">
    <path clip-path="url(#p253902391b)" d="M 713.987507 395.3736 
L 716.596603 395.3736 
L 716.596603 293.434617 
L 713.987507 293.434617 
z
" style="fill:#ff7f0e;"/>
   </g>
   <g id="patch_153">
    <path clip-path="url(#p253902391b)" d="M 717.248877 395.3736 
L 719.857973 395.3736 
L 719.857973 288.06579 
L 717.248877 288.06579 
z
" style="fill:#ff7f0e;"/>
   </g>
   <g id="patch_154">
    <path clip-path="url(#p253902391b)" d="M 720.510247 395.3736 
L 723.119342 395.3736 
L 723.119342 286.012472 
L 720.510247 286.012472 
z
" style="fill:#ff7f0e;"/>
   </g>
   <g id="patch_155">
    <path clip-path="url(#p253902391b)" d="M 723.771616 395.3736 
L 726.380712 395.3736 
L 726.380712 287.281895 
L 723.771616 287.281895 
z
" style="fill:#ff7f0e;"/>
   </g>
   <g id="patch_156">
    <path clip-path="url(#p253902391b)" d="M 727.032986 395.3736 
L 729.642082 395.3736 
L 729.642082 283.181587 
L 727.032986 283.181587 
z
" style="fill:#ff7f0e;"/>
   </g>
   <g id="patch_157">
    <path clip-path="url(#p253902391b)" d="M 730.294356 395.3736 
L 732.903452 395.3736 
L 732.903452 273.727824 
L 730.294356 273.727824 
z
" style="fill:#ff7f0e;"/>
   </g>
   <g id="patch_158">
    <path clip-path="url(#p253902391b)" d="M 733.555726 395.3736 
L 736.164822 395.3736 
L 736.164822 272.812827 
L 733.555726 272.812827 
z
" style="fill:#ff7f0e;"/>
   </g>
   <g id="patch_159">
    <path clip-path="url(#p253902391b)" d="M 736.817096 395.3736 
L 739.426192 395.3736 
L 739.426192 269.280323 
L 736.817096 269.280323 
z
" style="fill:#ff7f0e;"/>
   </g>
   <g id="patch_160">
    <path clip-path="url(#p253902391b)" d="M 740.078466 395.3736 
L 742.687562 395.3736 
L 742.687562 266.820139 
L 740.078466 266.820139 
z
" style="fill:#ff7f0e;"/>
   </g>
   <g id="patch_161">
    <path clip-path="url(#p253902391b)" d="M 743.339836 395.3736 
L 745.948932 395.3736 
L 745.948932 263.542605 
L 743.339836 263.542605 
z
" style="fill:#ff7f0e;"/>
   </g>
   <g id="patch_162">
    <path clip-path="url(#p253902391b)" d="M 746.601205 395.3736 
L 749.210301 395.3736 
L 749.210301 258.518259 
L 746.601205 258.518259 
z
" style="fill:#ff7f0e;"/>
   </g>
   <g id="patch_163">
    <path clip-path="url(#p253902391b)" d="M 749.862575 395.3736 
L 752.471671 395.3736 
L 752.471671 255.196422 
L 749.862575 255.196422 
z
" style="fill:#ff7f0e;"/>
   </g>
   <g id="patch_164">
    <path clip-path="url(#p253902391b)" d="M 753.123945 395.3736 
L 755.733041 395.3736 
L 755.733041 248.939723 
L 753.123945 248.939723 
z
" style="fill:#ff7f0e;"/>
   </g>
   <g id="patch_165">
    <path clip-path="url(#p253902391b)" d="M 756.385315 395.3736 
L 758.994411 395.3736 
L 758.994411 244.53743 
L 756.385315 244.53743 
z
" style="fill:#ff7f0e;"/>
   </g>
   <g id="patch_166">
    <path clip-path="url(#p253902391b)" d="M 759.646685 395.3736 
L 762.255781 395.3736 
L 762.255781 239.57095 
L 759.646685 239.57095 
z
" style="fill:#ff7f0e;"/>
   </g>
   <g id="patch_167">
    <path clip-path="url(#p253902391b)" d="M 762.908055 395.3736 
L 765.517151 395.3736 
L 765.517151 229.686812 
L 762.908055 229.686812 
z
" style="fill:#ff7f0e;"/>
   </g>
   <g id="patch_168">
    <path clip-path="url(#p253902391b)" d="M 766.169425 395.3736 
L 768.778521 395.3736 
L 768.778521 221.525075 
L 766.169425 221.525075 
z
" style="fill:#ff7f0e;"/>
   </g>
   <g id="patch_169">
    <path clip-path="url(#p253902391b)" d="M 769.430795 395.3736 
L 772.03989 395.3736 
L 772.03989 210.803697 
L 769.430795 210.803697 
z
" style="fill:#ff7f0e;"/>
   </g>
   <g id="patch_170">
    <path clip-path="url(#p253902391b)" d="M 772.692164 395.3736 
L 775.30126 395.3736 
L 775.30126 201.374346 
L 772.692164 201.374346 
z
" style="fill:#ff7f0e;"/>
   </g>
   <g id="patch_171">
    <path clip-path="url(#p253902391b)" d="M 775.953534 395.3736 
L 778.56263 395.3736 
L 778.56263 191.315708 
L 775.953534 191.315708 
z
" style="fill:#ff7f0e;"/>
   </g>
   <g id="patch_172">
    <path clip-path="url(#p253902391b)" d="M 779.214904 395.3736 
L 781.824 395.3736 
L 781.824 181.651278 
L 779.214904 181.651278 
z
" style="fill:#ff7f0e;"/>
   </g>
   <g id="patch_173">
    <path clip-path="url(#p253902391b)" d="M 782.476274 395.3736 
L 785.08537 395.3736 
L 785.08537 172.127896 
L 782.476274 172.127896 
z
" style="fill:#ff7f0e;"/>
   </g>
   <g id="patch_174">
    <path clip-path="url(#p253902391b)" d="M 785.737644 395.3736 
L 788.34674 395.3736 
L 788.34674 159.980678 
L 785.737644 159.980678 
z
" style="fill:#ff7f0e;"/>
   </g>
   <g id="patch_175">
    <path clip-path="url(#p253902391b)" d="M 788.999014 395.3736 
L 791.60811 395.3736 
L 791.60811 140.914925 
L 788.999014 140.914925 
z
" style="fill:#ff7f0e;"/>
   </g>
   <g id="patch_176">
    <path clip-path="url(#p253902391b)" d="M 792.260384 395.3736 
L 794.869479 395.3736 
L 794.869479 114.304064 
L 792.260384 114.304064 
z
" style="fill:#ff7f0e;"/>
   </g>
   <g id="patch_177">
    <path clip-path="url(#p253902391b)" d="M 795.521753 395.3736 
L 798.130849 395.3736 
L 798.130849 94.196734 
L 795.521753 94.196734 
z
" style="fill:#ff7f0e;"/>
   </g>
   <g id="patch_178">
    <path clip-path="url(#p253902391b)" d="M 798.783123 395.3736 
L 801.392219 395.3736 
L 801.392219 84.221277 
L 798.783123 84.221277 
z
" style="fill:#ff7f0e;"/>
   </g>
   <g id="patch_179">
    <path clip-path="url(#p253902391b)" d="M 802.044493 395.3736 
L 804.653589 395.3736 
L 804.653589 76.167134 
L 802.044493 76.167134 
z
" style="fill:#ff7f0e;"/>
   </g>
   <g id="patch_180">
    <path clip-path="url(#p253902391b)" d="M 805.305863 395.3736 
L 807.914959 395.3736 
L 807.914959 92.225693 
L 805.305863 92.225693 
z
" style="fill:#ff7f0e;"/>
   </g>
   <g id="patch_181">
    <path clip-path="url(#p253902391b)" d="M 808.567233 395.3736 
L 811.176329 395.3736 
L 811.176329 93.966176 
L 808.567233 93.966176 
z
" style="fill:#ff7f0e;"/>
   </g>
   <g id="patch_182">
    <path clip-path="url(#p253902391b)" d="M 811.828603 395.3736 
L 814.437699 395.3736 
L 814.437699 80.252975 
L 811.828603 80.252975 
z
" style="fill:#ff7f0e;"/>
   </g>
   <g id="patch_183">
    <path clip-path="url(#p253902391b)" d="M 815.089973 395.3736 
L 817.699068 395.3736 
L 817.699068 69.5976 
L 815.089973 69.5976 
z
" style="fill:#ff7f0e;"/>
   </g>
   <g id="patch_184">
    <path clip-path="url(#p253902391b)" d="M 818.351342 395.3736 
L 820.960438 395.3736 
L 820.960438 90.878513 
L 818.351342 90.878513 
z
" style="fill:#ff7f0e;"/>
   </g>
   <g id="patch_185">
    <path clip-path="url(#p253902391b)" d="M 821.612712 395.3736 
L 824.221808 395.3736 
L 824.221808 138.130152 
L 821.612712 138.130152 
z
" style="fill:#ff7f0e;"/>
   </g>
   <g id="patch_186">
    <path clip-path="url(#p253902391b)" d="M 824.874082 395.3736 
L 827.483178 395.3736 
L 827.483178 283.282852 
L 824.874082 283.282852 
z
" style="fill:#ff7f0e;"/>
   </g>
   <g id="patch_187">
    <path clip-path="url(#p253902391b)" d="M 828.135452 395.3736 
L 830.744548 395.3736 
L 830.744548 395.371792 
L 828.135452 395.371792 
z
" style="fill:#ff7f0e;"/>
   </g>
   <g id="matplotlib.axis_1">
    <g id="xtick_1">
     <g id="line2d_1">
      <defs>
       <path d="M 0 0 
L 0 3.5 
" id="m03b54c5cc8" style="stroke:#000000;stroke-width:0.8;"/>
      </defs>
      <g>
       <use style="stroke:#000000;stroke-width:0.8;" x="183.688767" xlink:href="#m03b54c5cc8" y="395.3736"/>
      </g>
     </g>
     <g id="text_1">
      <!-- 1825 -->
      <g transform="translate(170.963767 409.972037)scale(0.1 -0.1)">
       <defs>
        <path d="M 12.40625 8.296875 
L 28.515625 8.296875 
L 28.515625 63.921875 
L 10.984375 60.40625 
L 10.984375 69.390625 
L 28.421875 72.90625 
L 38.28125 72.90625 
L 38.28125 8.296875 
L 54.390625 8.296875 
L 54.390625 0 
L 12.40625 0 
z
" id="DejaVuSans-49"/>
        <path d="M 31.78125 34.625 
Q 24.75 34.625 20.71875 30.859375 
Q 16.703125 27.09375 16.703125 20.515625 
Q 16.703125 13.921875 20.71875 10.15625 
Q 24.75 6.390625 31.78125 6.390625 
Q 38.8125 6.390625 42.859375 10.171875 
Q 46.921875 13.96875 46.921875 20.515625 
Q 46.921875 27.09375 42.890625 30.859375 
Q 38.875 34.625 31.78125 34.625 
z
M 21.921875 38.8125 
Q 15.578125 40.375 12.03125 44.71875 
Q 8.5 49.078125 8.5 55.328125 
Q 8.5 64.0625 14.71875 69.140625 
Q 20.953125 74.21875 31.78125 74.21875 
Q 42.671875 74.21875 48.875 69.140625 
Q 55.078125 64.0625 55.078125 55.328125 
Q 55.078125 49.078125 51.53125 44.71875 
Q 48 40.375 41.703125 38.8125 
Q 48.828125 37.15625 52.796875 32.3125 
Q 56.78125 27.484375 56.78125 20.515625 
Q 56.78125 9.90625 50.3125 4.234375 
Q 43.84375 -1.421875 31.78125 -1.421875 
Q 19.734375 -1.421875 13.25 4.234375 
Q 6.78125 9.90625 6.78125 20.515625 
Q 6.78125 27.484375 10.78125 32.3125 
Q 14.796875 37.15625 21.921875 38.8125 
z
M 18.3125 54.390625 
Q 18.3125 48.734375 21.84375 45.5625 
Q 25.390625 42.390625 31.78125 42.390625 
Q 38.140625 42.390625 41.71875 45.5625 
Q 45.3125 48.734375 45.3125 54.390625 
Q 45.3125 60.0625 41.71875 63.234375 
Q 38.140625 66.40625 31.78125 66.40625 
Q 25.390625 66.40625 21.84375 63.234375 
Q 18.3125 60.0625 18.3125 54.390625 
z
" id="DejaVuSans-56"/>
        <path d="M 19.1875 8.296875 
L 53.609375 8.296875 
L 53.609375 0 
L 7.328125 0 
L 7.328125 8.296875 
Q 12.9375 14.109375 22.625 23.890625 
Q 32.328125 33.6875 34.8125 36.53125 
Q 39.546875 41.84375 41.421875 45.53125 
Q 43.3125 49.21875 43.3125 52.78125 
Q 43.3125 58.59375 39.234375 62.25 
Q 35.15625 65.921875 28.609375 65.921875 
Q 23.96875 65.921875 18.8125 64.3125 
Q 13.671875 62.703125 7.8125 59.421875 
L 7.8125 69.390625 
Q 13.765625 71.78125 18.9375 73 
Q 24.125 74.21875 28.421875 74.21875 
Q 39.75 74.21875 46.484375 68.546875 
Q 53.21875 62.890625 53.21875 53.421875 
Q 53.21875 48.921875 51.53125 44.890625 
Q 49.859375 40.875 45.40625 35.40625 
Q 44.1875 33.984375 37.640625 27.21875 
Q 31.109375 20.453125 19.1875 8.296875 
z
" id="DejaVuSans-50"/>
        <path d="M 10.796875 72.90625 
L 49.515625 72.90625 
L 49.515625 64.59375 
L 19.828125 64.59375 
L 19.828125 46.734375 
Q 21.96875 47.46875 24.109375 47.828125 
Q 26.265625 48.1875 28.421875 48.1875 
Q 40.625 48.1875 47.75 41.5 
Q 54.890625 34.8125 54.890625 23.390625 
Q 54.890625 11.625 47.5625 5.09375 
Q 40.234375 -1.421875 26.90625 -1.421875 
Q 22.3125 -1.421875 17.546875 -0.640625 
Q 12.796875 0.140625 7.71875 1.703125 
L 7.71875 11.625 
Q 12.109375 9.234375 16.796875 8.0625 
Q 21.484375 6.890625 26.703125 6.890625 
Q 35.15625 6.890625 40.078125 11.328125 
Q 45.015625 15.765625 45.015625 23.390625 
Q 45.015625 31 40.078125 35.4375 
Q 35.15625 39.890625 26.703125 39.890625 
Q 22.75 39.890625 18.8125 39.015625 
Q 14.890625 38.140625 10.796875 36.28125 
z
" id="DejaVuSans-53"/>
       </defs>
       <use xlink:href="#DejaVuSans-49"/>
       <use x="63.623047" xlink:href="#DejaVuSans-56"/>
       <use x="127.246094" xlink:href="#DejaVuSans-50"/>
       <use x="190.869141" xlink:href="#DejaVuSans-53"/>
      </g>
     </g>
    </g>
    <g id="xtick_2">
     <g id="line2d_2">
      <g>
       <use style="stroke:#000000;stroke-width:0.8;" x="265.223014" xlink:href="#m03b54c5cc8" y="395.3736"/>
      </g>
     </g>
     <g id="text_2">
      <!-- 1850 -->
      <g transform="translate(252.498014 409.972037)scale(0.1 -0.1)">
       <defs>
        <path d="M 31.78125 66.40625 
Q 24.171875 66.40625 20.328125 58.90625 
Q 16.5 51.421875 16.5 36.375 
Q 16.5 21.390625 20.328125 13.890625 
Q 24.171875 6.390625 31.78125 6.390625 
Q 39.453125 6.390625 43.28125 13.890625 
Q 47.125 21.390625 47.125 36.375 
Q 47.125 51.421875 43.28125 58.90625 
Q 39.453125 66.40625 31.78125 66.40625 
z
M 31.78125 74.21875 
Q 44.046875 74.21875 50.515625 64.515625 
Q 56.984375 54.828125 56.984375 36.375 
Q 56.984375 17.96875 50.515625 8.265625 
Q 44.046875 -1.421875 31.78125 -1.421875 
Q 19.53125 -1.421875 13.0625 8.265625 
Q 6.59375 17.96875 6.59375 36.375 
Q 6.59375 54.828125 13.0625 64.515625 
Q 19.53125 74.21875 31.78125 74.21875 
z
" id="DejaVuSans-48"/>
       </defs>
       <use xlink:href="#DejaVuSans-49"/>
       <use x="63.623047" xlink:href="#DejaVuSans-56"/>
       <use x="127.246094" xlink:href="#DejaVuSans-53"/>
       <use x="190.869141" xlink:href="#DejaVuSans-48"/>
      </g>
     </g>
    </g>
    <g id="xtick_3">
     <g id="line2d_3">
      <g>
       <use style="stroke:#000000;stroke-width:0.8;" x="346.75726" xlink:href="#m03b54c5cc8" y="395.3736"/>
      </g>
     </g>
     <g id="text_3">
      <!-- 1875 -->
      <g transform="translate(334.03226 409.972037)scale(0.1 -0.1)">
       <defs>
        <path d="M 8.203125 72.90625 
L 55.078125 72.90625 
L 55.078125 68.703125 
L 28.609375 0 
L 18.3125 0 
L 43.21875 64.59375 
L 8.203125 64.59375 
z
" id="DejaVuSans-55"/>
       </defs>
       <use xlink:href="#DejaVuSans-49"/>
       <use x="63.623047" xlink:href="#DejaVuSans-56"/>
       <use x="127.246094" xlink:href="#DejaVuSans-55"/>
       <use x="190.869141" xlink:href="#DejaVuSans-53"/>
      </g>
     </g>
    </g>
    <g id="xtick_4">
     <g id="line2d_4">
      <g>
       <use style="stroke:#000000;stroke-width:0.8;" x="428.291507" xlink:href="#m03b54c5cc8" y="395.3736"/>
      </g>
     </g>
     <g id="text_4">
      <!-- 1900 -->
      <g transform="translate(415.566507 409.972037)scale(0.1 -0.1)">
       <defs>
        <path d="M 10.984375 1.515625 
L 10.984375 10.5 
Q 14.703125 8.734375 18.5 7.8125 
Q 22.3125 6.890625 25.984375 6.890625 
Q 35.75 6.890625 40.890625 13.453125 
Q 46.046875 20.015625 46.78125 33.40625 
Q 43.953125 29.203125 39.59375 26.953125 
Q 35.25 24.703125 29.984375 24.703125 
Q 19.046875 24.703125 12.671875 31.3125 
Q 6.296875 37.9375 6.296875 49.421875 
Q 6.296875 60.640625 12.9375 67.421875 
Q 19.578125 74.21875 30.609375 74.21875 
Q 43.265625 74.21875 49.921875 64.515625 
Q 56.59375 54.828125 56.59375 36.375 
Q 56.59375 19.140625 48.40625 8.859375 
Q 40.234375 -1.421875 26.421875 -1.421875 
Q 22.703125 -1.421875 18.890625 -0.6875 
Q 15.09375 0.046875 10.984375 1.515625 
z
M 30.609375 32.421875 
Q 37.25 32.421875 41.125 36.953125 
Q 45.015625 41.5 45.015625 49.421875 
Q 45.015625 57.28125 41.125 61.84375 
Q 37.25 66.40625 30.609375 66.40625 
Q 23.96875 66.40625 20.09375 61.84375 
Q 16.21875 57.28125 16.21875 49.421875 
Q 16.21875 41.5 20.09375 36.953125 
Q 23.96875 32.421875 30.609375 32.421875 
z
" id="DejaVuSans-57"/>
       </defs>
       <use xlink:href="#DejaVuSans-49"/>
       <use x="63.623047" xlink:href="#DejaVuSans-57"/>
       <use x="127.246094" xlink:href="#DejaVuSans-48"/>
       <use x="190.869141" xlink:href="#DejaVuSans-48"/>
      </g>
     </g>
    </g>
    <g id="xtick_5">
     <g id="line2d_5">
      <g>
       <use style="stroke:#000000;stroke-width:0.8;" x="509.825753" xlink:href="#m03b54c5cc8" y="395.3736"/>
      </g>
     </g>
     <g id="text_5">
      <!-- 1925 -->
      <g transform="translate(497.100753 409.972037)scale(0.1 -0.1)">
       <use xlink:href="#DejaVuSans-49"/>
       <use x="63.623047" xlink:href="#DejaVuSans-57"/>
       <use x="127.246094" xlink:href="#DejaVuSans-50"/>
       <use x="190.869141" xlink:href="#DejaVuSans-53"/>
      </g>
     </g>
    </g>
    <g id="xtick_6">
     <g id="line2d_6">
      <g>
       <use style="stroke:#000000;stroke-width:0.8;" x="591.36" xlink:href="#m03b54c5cc8" y="395.3736"/>
      </g>
     </g>
     <g id="text_6">
      <!-- 1950 -->
      <g transform="translate(578.635 409.972037)scale(0.1 -0.1)">
       <use xlink:href="#DejaVuSans-49"/>
       <use x="63.623047" xlink:href="#DejaVuSans-57"/>
       <use x="127.246094" xlink:href="#DejaVuSans-53"/>
       <use x="190.869141" xlink:href="#DejaVuSans-48"/>
      </g>
     </g>
    </g>
    <g id="xtick_7">
     <g id="line2d_7">
      <g>
       <use style="stroke:#000000;stroke-width:0.8;" x="672.894247" xlink:href="#m03b54c5cc8" y="395.3736"/>
      </g>
     </g>
     <g id="text_7">
      <!-- 1975 -->
      <g transform="translate(660.169247 409.972037)scale(0.1 -0.1)">
       <use xlink:href="#DejaVuSans-49"/>
       <use x="63.623047" xlink:href="#DejaVuSans-57"/>
       <use x="127.246094" xlink:href="#DejaVuSans-55"/>
       <use x="190.869141" xlink:href="#DejaVuSans-53"/>
      </g>
     </g>
    </g>
    <g id="xtick_8">
     <g id="line2d_8">
      <g>
       <use style="stroke:#000000;stroke-width:0.8;" x="754.428493" xlink:href="#m03b54c5cc8" y="395.3736"/>
      </g>
     </g>
     <g id="text_8">
      <!-- 2000 -->
      <g transform="translate(741.703493 409.972037)scale(0.1 -0.1)">
       <use xlink:href="#DejaVuSans-50"/>
       <use x="63.623047" xlink:href="#DejaVuSans-48"/>
       <use x="127.246094" xlink:href="#DejaVuSans-48"/>
       <use x="190.869141" xlink:href="#DejaVuSans-48"/>
      </g>
     </g>
    </g>
    <g id="text_9">
     <!-- Year -->
     <g transform="translate(461.7325 423.650163)scale(0.1 -0.1)">
      <defs>
       <path d="M -0.203125 72.90625 
L 10.40625 72.90625 
L 30.609375 42.921875 
L 50.6875 72.90625 
L 61.28125 72.90625 
L 35.5 34.71875 
L 35.5 0 
L 25.59375 0 
L 25.59375 34.71875 
z
" id="DejaVuSans-89"/>
       <path d="M 56.203125 29.59375 
L 56.203125 25.203125 
L 14.890625 25.203125 
Q 15.484375 15.921875 20.484375 11.0625 
Q 25.484375 6.203125 34.421875 6.203125 
Q 39.59375 6.203125 44.453125 7.46875 
Q 49.3125 8.734375 54.109375 11.28125 
L 54.109375 2.78125 
Q 49.265625 0.734375 44.1875 -0.34375 
Q 39.109375 -1.421875 33.890625 -1.421875 
Q 20.796875 -1.421875 13.15625 6.1875 
Q 5.515625 13.8125 5.515625 26.8125 
Q 5.515625 40.234375 12.765625 48.109375 
Q 20.015625 56 32.328125 56 
Q 43.359375 56 49.78125 48.890625 
Q 56.203125 41.796875 56.203125 29.59375 
z
M 47.21875 32.234375 
Q 47.125 39.59375 43.09375 43.984375 
Q 39.0625 48.390625 32.421875 48.390625 
Q 24.90625 48.390625 20.390625 44.140625 
Q 15.875 39.890625 15.1875 32.171875 
z
" id="DejaVuSans-101"/>
       <path d="M 34.28125 27.484375 
Q 23.390625 27.484375 19.1875 25 
Q 14.984375 22.515625 14.984375 16.5 
Q 14.984375 11.71875 18.140625 8.90625 
Q 21.296875 6.109375 26.703125 6.109375 
Q 34.1875 6.109375 38.703125 11.40625 
Q 43.21875 16.703125 43.21875 25.484375 
L 43.21875 27.484375 
z
M 52.203125 31.203125 
L 52.203125 0 
L 43.21875 0 
L 43.21875 8.296875 
Q 40.140625 3.328125 35.546875 0.953125 
Q 30.953125 -1.421875 24.3125 -1.421875 
Q 15.921875 -1.421875 10.953125 3.296875 
Q 6 8.015625 6 15.921875 
Q 6 25.140625 12.171875 29.828125 
Q 18.359375 34.515625 30.609375 34.515625 
L 43.21875 34.515625 
L 43.21875 35.40625 
Q 43.21875 41.609375 39.140625 45 
Q 35.0625 48.390625 27.6875 48.390625 
Q 23 48.390625 18.546875 47.265625 
Q 14.109375 46.140625 10.015625 43.890625 
L 10.015625 52.203125 
Q 14.9375 54.109375 19.578125 55.046875 
Q 24.21875 56 28.609375 56 
Q 40.484375 56 46.34375 49.84375 
Q 52.203125 43.703125 52.203125 31.203125 
z
" id="DejaVuSans-97"/>
       <path d="M 41.109375 46.296875 
Q 39.59375 47.171875 37.8125 47.578125 
Q 36.03125 48 33.890625 48 
Q 26.265625 48 22.1875 43.046875 
Q 18.109375 38.09375 18.109375 28.8125 
L 18.109375 0 
L 9.078125 0 
L 9.078125 54.6875 
L 18.109375 54.6875 
L 18.109375 46.1875 
Q 20.953125 51.171875 25.484375 53.578125 
Q 30.03125 56 36.53125 56 
Q 37.453125 56 38.578125 55.875 
Q 39.703125 55.765625 41.0625 55.515625 
z
" id="DejaVuSans-114"/>
      </defs>
      <use xlink:href="#DejaVuSans-89"/>
      <use x="47.833984" xlink:href="#DejaVuSans-101"/>
      <use x="109.357422" xlink:href="#DejaVuSans-97"/>
      <use x="170.636719" xlink:href="#DejaVuSans-114"/>
     </g>
    </g>
   </g>
   <g id="matplotlib.axis_2">
    <g id="ytick_1">
     <g id="line2d_9">
      <defs>
       <path d="M 0 0 
L -3.5 0 
" id="m0fa7a10c43" style="stroke:#000000;stroke-width:0.8;"/>
      </defs>
      <g>
       <use style="stroke:#000000;stroke-width:0.8;" x="115.2" xlink:href="#m0fa7a10c43" y="395.3736"/>
      </g>
     </g>
     <g id="text_10">
      <!-- 0 -->
      <g transform="translate(101.8375 399.172819)scale(0.1 -0.1)">
       <use xlink:href="#DejaVuSans-48"/>
      </g>
     </g>
    </g>
    <g id="ytick_2">
     <g id="line2d_10">
      <g>
       <use style="stroke:#000000;stroke-width:0.8;" x="115.2" xlink:href="#m0fa7a10c43" y="350.166239"/>
      </g>
     </g>
     <g id="text_11">
      <!-- 50000 -->
      <g transform="translate(76.3875 353.965457)scale(0.1 -0.1)">
       <use xlink:href="#DejaVuSans-53"/>
       <use x="63.623047" xlink:href="#DejaVuSans-48"/>
       <use x="127.246094" xlink:href="#DejaVuSans-48"/>
       <use x="190.869141" xlink:href="#DejaVuSans-48"/>
       <use x="254.492188" xlink:href="#DejaVuSans-48"/>
      </g>
     </g>
    </g>
    <g id="ytick_3">
     <g id="line2d_11">
      <g>
       <use style="stroke:#000000;stroke-width:0.8;" x="115.2" xlink:href="#m0fa7a10c43" y="304.958877"/>
      </g>
     </g>
     <g id="text_12">
      <!-- 100000 -->
      <g transform="translate(70.025 308.758096)scale(0.1 -0.1)">
       <use xlink:href="#DejaVuSans-49"/>
       <use x="63.623047" xlink:href="#DejaVuSans-48"/>
       <use x="127.246094" xlink:href="#DejaVuSans-48"/>
       <use x="190.869141" xlink:href="#DejaVuSans-48"/>
       <use x="254.492188" xlink:href="#DejaVuSans-48"/>
       <use x="318.115234" xlink:href="#DejaVuSans-48"/>
      </g>
     </g>
    </g>
    <g id="ytick_4">
     <g id="line2d_12">
      <g>
       <use style="stroke:#000000;stroke-width:0.8;" x="115.2" xlink:href="#m0fa7a10c43" y="259.751516"/>
      </g>
     </g>
     <g id="text_13">
      <!-- 150000 -->
      <g transform="translate(70.025 263.550735)scale(0.1 -0.1)">
       <use xlink:href="#DejaVuSans-49"/>
       <use x="63.623047" xlink:href="#DejaVuSans-53"/>
       <use x="127.246094" xlink:href="#DejaVuSans-48"/>
       <use x="190.869141" xlink:href="#DejaVuSans-48"/>
       <use x="254.492188" xlink:href="#DejaVuSans-48"/>
       <use x="318.115234" xlink:href="#DejaVuSans-48"/>
      </g>
     </g>
    </g>
    <g id="ytick_5">
     <g id="line2d_13">
      <g>
       <use style="stroke:#000000;stroke-width:0.8;" x="115.2" xlink:href="#m0fa7a10c43" y="214.544154"/>
      </g>
     </g>
     <g id="text_14">
      <!-- 200000 -->
      <g transform="translate(70.025 218.343373)scale(0.1 -0.1)">
       <use xlink:href="#DejaVuSans-50"/>
       <use x="63.623047" xlink:href="#DejaVuSans-48"/>
       <use x="127.246094" xlink:href="#DejaVuSans-48"/>
       <use x="190.869141" xlink:href="#DejaVuSans-48"/>
       <use x="254.492188" xlink:href="#DejaVuSans-48"/>
       <use x="318.115234" xlink:href="#DejaVuSans-48"/>
      </g>
     </g>
    </g>
    <g id="ytick_6">
     <g id="line2d_14">
      <g>
       <use style="stroke:#000000;stroke-width:0.8;" x="115.2" xlink:href="#m0fa7a10c43" y="169.336793"/>
      </g>
     </g>
     <g id="text_15">
      <!-- 250000 -->
      <g transform="translate(70.025 173.136012)scale(0.1 -0.1)">
       <use xlink:href="#DejaVuSans-50"/>
       <use x="63.623047" xlink:href="#DejaVuSans-53"/>
       <use x="127.246094" xlink:href="#DejaVuSans-48"/>
       <use x="190.869141" xlink:href="#DejaVuSans-48"/>
       <use x="254.492188" xlink:href="#DejaVuSans-48"/>
       <use x="318.115234" xlink:href="#DejaVuSans-48"/>
      </g>
     </g>
    </g>
    <g id="ytick_7">
     <g id="line2d_15">
      <g>
       <use style="stroke:#000000;stroke-width:0.8;" x="115.2" xlink:href="#m0fa7a10c43" y="124.129432"/>
      </g>
     </g>
     <g id="text_16">
      <!-- 300000 -->
      <g transform="translate(70.025 127.92865)scale(0.1 -0.1)">
       <defs>
        <path d="M 40.578125 39.3125 
Q 47.65625 37.796875 51.625 33 
Q 55.609375 28.21875 55.609375 21.1875 
Q 55.609375 10.40625 48.1875 4.484375 
Q 40.765625 -1.421875 27.09375 -1.421875 
Q 22.515625 -1.421875 17.65625 -0.515625 
Q 12.796875 0.390625 7.625 2.203125 
L 7.625 11.71875 
Q 11.71875 9.328125 16.59375 8.109375 
Q 21.484375 6.890625 26.8125 6.890625 
Q 36.078125 6.890625 40.9375 10.546875 
Q 45.796875 14.203125 45.796875 21.1875 
Q 45.796875 27.640625 41.28125 31.265625 
Q 36.765625 34.90625 28.71875 34.90625 
L 20.21875 34.90625 
L 20.21875 43.015625 
L 29.109375 43.015625 
Q 36.375 43.015625 40.234375 45.921875 
Q 44.09375 48.828125 44.09375 54.296875 
Q 44.09375 59.90625 40.109375 62.90625 
Q 36.140625 65.921875 28.71875 65.921875 
Q 24.65625 65.921875 20.015625 65.03125 
Q 15.375 64.15625 9.8125 62.3125 
L 9.8125 71.09375 
Q 15.4375 72.65625 20.34375 73.4375 
Q 25.25 74.21875 29.59375 74.21875 
Q 40.828125 74.21875 47.359375 69.109375 
Q 53.90625 64.015625 53.90625 55.328125 
Q 53.90625 49.265625 50.4375 45.09375 
Q 46.96875 40.921875 40.578125 39.3125 
z
" id="DejaVuSans-51"/>
       </defs>
       <use xlink:href="#DejaVuSans-51"/>
       <use x="63.623047" xlink:href="#DejaVuSans-48"/>
       <use x="127.246094" xlink:href="#DejaVuSans-48"/>
       <use x="190.869141" xlink:href="#DejaVuSans-48"/>
       <use x="254.492188" xlink:href="#DejaVuSans-48"/>
       <use x="318.115234" xlink:href="#DejaVuSans-48"/>
      </g>
     </g>
    </g>
    <g id="ytick_8">
     <g id="line2d_16">
      <g>
       <use style="stroke:#000000;stroke-width:0.8;" x="115.2" xlink:href="#m0fa7a10c43" y="78.92207"/>
      </g>
     </g>
     <g id="text_17">
      <!-- 350000 -->
      <g transform="translate(70.025 82.721289)scale(0.1 -0.1)">
       <use xlink:href="#DejaVuSans-51"/>
       <use x="63.623047" xlink:href="#DejaVuSans-53"/>
       <use x="127.246094" xlink:href="#DejaVuSans-48"/>
       <use x="190.869141" xlink:href="#DejaVuSans-48"/>
       <use x="254.492188" xlink:href="#DejaVuSans-48"/>
       <use x="318.115234" xlink:href="#DejaVuSans-48"/>
      </g>
     </g>
    </g>
    <g id="text_18">
     <!-- Total -->
     <g transform="translate(63.945313 236.017763)rotate(-90)scale(0.1 -0.1)">
      <defs>
       <path d="M -0.296875 72.90625 
L 61.375 72.90625 
L 61.375 64.59375 
L 35.5 64.59375 
L 35.5 0 
L 25.59375 0 
L 25.59375 64.59375 
L -0.296875 64.59375 
z
" id="DejaVuSans-84"/>
       <path d="M 30.609375 48.390625 
Q 23.390625 48.390625 19.1875 42.75 
Q 14.984375 37.109375 14.984375 27.296875 
Q 14.984375 17.484375 19.15625 11.84375 
Q 23.34375 6.203125 30.609375 6.203125 
Q 37.796875 6.203125 41.984375 11.859375 
Q 46.1875 17.53125 46.1875 27.296875 
Q 46.1875 37.015625 41.984375 42.703125 
Q 37.796875 48.390625 30.609375 48.390625 
z
M 30.609375 56 
Q 42.328125 56 49.015625 48.375 
Q 55.71875 40.765625 55.71875 27.296875 
Q 55.71875 13.875 49.015625 6.21875 
Q 42.328125 -1.421875 30.609375 -1.421875 
Q 18.84375 -1.421875 12.171875 6.21875 
Q 5.515625 13.875 5.515625 27.296875 
Q 5.515625 40.765625 12.171875 48.375 
Q 18.84375 56 30.609375 56 
z
" id="DejaVuSans-111"/>
       <path d="M 18.3125 70.21875 
L 18.3125 54.6875 
L 36.8125 54.6875 
L 36.8125 47.703125 
L 18.3125 47.703125 
L 18.3125 18.015625 
Q 18.3125 11.328125 20.140625 9.421875 
Q 21.96875 7.515625 27.59375 7.515625 
L 36.8125 7.515625 
L 36.8125 0 
L 27.59375 0 
Q 17.1875 0 13.234375 3.875 
Q 9.28125 7.765625 9.28125 18.015625 
L 9.28125 47.703125 
L 2.6875 47.703125 
L 2.6875 54.6875 
L 9.28125 54.6875 
L 9.28125 70.21875 
z
" id="DejaVuSans-116"/>
       <path d="M 9.421875 75.984375 
L 18.40625 75.984375 
L 18.40625 0 
L 9.421875 0 
z
" id="DejaVuSans-108"/>
      </defs>
      <use xlink:href="#DejaVuSans-84"/>
      <use x="44.083984" xlink:href="#DejaVuSans-111"/>
      <use x="105.265625" xlink:href="#DejaVuSans-116"/>
      <use x="144.474609" xlink:href="#DejaVuSans-97"/>
      <use x="205.753906" xlink:href="#DejaVuSans-108"/>
     </g>
    </g>
   </g>
   <g id="patch_188">
    <path d="M 115.2 395.3736 
L 115.2 53.3088 
" style="fill:none;stroke:#000000;stroke-linecap:square;stroke-linejoin:miter;stroke-width:0.8;"/>
   </g>
   <g id="patch_189">
    <path d="M 829.44 395.3736 
L 829.44 53.3088 
" style="fill:none;stroke:#000000;stroke-linecap:square;stroke-linejoin:miter;stroke-width:0.8;"/>
   </g>
   <g id="patch_190">
    <path d="M 115.2 395.3736 
L 829.44 395.3736 
" style="fill:none;stroke:#000000;stroke-linecap:square;stroke-linejoin:miter;stroke-width:0.8;"/>
   </g>
   <g id="patch_191">
    <path d="M 115.2 53.3088 
L 829.44 53.3088 
" style="fill:none;stroke:#000000;stroke-linecap:square;stroke-linejoin:miter;stroke-width:0.8;"/>
   </g>
   <g id="text_19">
    <!-- Comparison of articles tagged "male and female -->
    <g transform="translate(326.464687 47.3088)scale(0.12 -0.12)">
     <defs>
      <path d="M 64.40625 67.28125 
L 64.40625 56.890625 
Q 59.421875 61.53125 53.78125 63.8125 
Q 48.140625 66.109375 41.796875 66.109375 
Q 29.296875 66.109375 22.65625 58.46875 
Q 16.015625 50.828125 16.015625 36.375 
Q 16.015625 21.96875 22.65625 14.328125 
Q 29.296875 6.6875 41.796875 6.6875 
Q 48.140625 6.6875 53.78125 8.984375 
Q 59.421875 11.28125 64.40625 15.921875 
L 64.40625 5.609375 
Q 59.234375 2.09375 53.4375 0.328125 
Q 47.65625 -1.421875 41.21875 -1.421875 
Q 24.65625 -1.421875 15.125 8.703125 
Q 5.609375 18.84375 5.609375 36.375 
Q 5.609375 53.953125 15.125 64.078125 
Q 24.65625 74.21875 41.21875 74.21875 
Q 47.75 74.21875 53.53125 72.484375 
Q 59.328125 70.75 64.40625 67.28125 
z
" id="DejaVuSans-67"/>
      <path d="M 52 44.1875 
Q 55.375 50.25 60.0625 53.125 
Q 64.75 56 71.09375 56 
Q 79.640625 56 84.28125 50.015625 
Q 88.921875 44.046875 88.921875 33.015625 
L 88.921875 0 
L 79.890625 0 
L 79.890625 32.71875 
Q 79.890625 40.578125 77.09375 44.375 
Q 74.3125 48.1875 68.609375 48.1875 
Q 61.625 48.1875 57.5625 43.546875 
Q 53.515625 38.921875 53.515625 30.90625 
L 53.515625 0 
L 44.484375 0 
L 44.484375 32.71875 
Q 44.484375 40.625 41.703125 44.40625 
Q 38.921875 48.1875 33.109375 48.1875 
Q 26.21875 48.1875 22.15625 43.53125 
Q 18.109375 38.875 18.109375 30.90625 
L 18.109375 0 
L 9.078125 0 
L 9.078125 54.6875 
L 18.109375 54.6875 
L 18.109375 46.1875 
Q 21.1875 51.21875 25.484375 53.609375 
Q 29.78125 56 35.6875 56 
Q 41.65625 56 45.828125 52.96875 
Q 50 49.953125 52 44.1875 
z
" id="DejaVuSans-109"/>
      <path d="M 18.109375 8.203125 
L 18.109375 -20.796875 
L 9.078125 -20.796875 
L 9.078125 54.6875 
L 18.109375 54.6875 
L 18.109375 46.390625 
Q 20.953125 51.265625 25.265625 53.625 
Q 29.59375 56 35.59375 56 
Q 45.5625 56 51.78125 48.09375 
Q 58.015625 40.1875 58.015625 27.296875 
Q 58.015625 14.40625 51.78125 6.484375 
Q 45.5625 -1.421875 35.59375 -1.421875 
Q 29.59375 -1.421875 25.265625 0.953125 
Q 20.953125 3.328125 18.109375 8.203125 
z
M 48.6875 27.296875 
Q 48.6875 37.203125 44.609375 42.84375 
Q 40.53125 48.484375 33.40625 48.484375 
Q 26.265625 48.484375 22.1875 42.84375 
Q 18.109375 37.203125 18.109375 27.296875 
Q 18.109375 17.390625 22.1875 11.75 
Q 26.265625 6.109375 33.40625 6.109375 
Q 40.53125 6.109375 44.609375 11.75 
Q 48.6875 17.390625 48.6875 27.296875 
z
" id="DejaVuSans-112"/>
      <path d="M 9.421875 54.6875 
L 18.40625 54.6875 
L 18.40625 0 
L 9.421875 0 
z
M 9.421875 75.984375 
L 18.40625 75.984375 
L 18.40625 64.59375 
L 9.421875 64.59375 
z
" id="DejaVuSans-105"/>
      <path d="M 44.28125 53.078125 
L 44.28125 44.578125 
Q 40.484375 46.53125 36.375 47.5 
Q 32.28125 48.484375 27.875 48.484375 
Q 21.1875 48.484375 17.84375 46.4375 
Q 14.5 44.390625 14.5 40.28125 
Q 14.5 37.15625 16.890625 35.375 
Q 19.28125 33.59375 26.515625 31.984375 
L 29.59375 31.296875 
Q 39.15625 29.25 43.1875 25.515625 
Q 47.21875 21.78125 47.21875 15.09375 
Q 47.21875 7.46875 41.1875 3.015625 
Q 35.15625 -1.421875 24.609375 -1.421875 
Q 20.21875 -1.421875 15.453125 -0.5625 
Q 10.6875 0.296875 5.421875 2 
L 5.421875 11.28125 
Q 10.40625 8.6875 15.234375 7.390625 
Q 20.0625 6.109375 24.8125 6.109375 
Q 31.15625 6.109375 34.5625 8.28125 
Q 37.984375 10.453125 37.984375 14.40625 
Q 37.984375 18.0625 35.515625 20.015625 
Q 33.0625 21.96875 24.703125 23.78125 
L 21.578125 24.515625 
Q 13.234375 26.265625 9.515625 29.90625 
Q 5.8125 33.546875 5.8125 39.890625 
Q 5.8125 47.609375 11.28125 51.796875 
Q 16.75 56 26.8125 56 
Q 31.78125 56 36.171875 55.265625 
Q 40.578125 54.546875 44.28125 53.078125 
z
" id="DejaVuSans-115"/>
      <path d="M 54.890625 33.015625 
L 54.890625 0 
L 45.90625 0 
L 45.90625 32.71875 
Q 45.90625 40.484375 42.875 44.328125 
Q 39.84375 48.1875 33.796875 48.1875 
Q 26.515625 48.1875 22.3125 43.546875 
Q 18.109375 38.921875 18.109375 30.90625 
L 18.109375 0 
L 9.078125 0 
L 9.078125 54.6875 
L 18.109375 54.6875 
L 18.109375 46.1875 
Q 21.34375 51.125 25.703125 53.5625 
Q 30.078125 56 35.796875 56 
Q 45.21875 56 50.046875 50.171875 
Q 54.890625 44.34375 54.890625 33.015625 
z
" id="DejaVuSans-110"/>
      <path id="DejaVuSans-32"/>
      <path d="M 37.109375 75.984375 
L 37.109375 68.5 
L 28.515625 68.5 
Q 23.6875 68.5 21.796875 66.546875 
Q 19.921875 64.59375 19.921875 59.515625 
L 19.921875 54.6875 
L 34.71875 54.6875 
L 34.71875 47.703125 
L 19.921875 47.703125 
L 19.921875 0 
L 10.890625 0 
L 10.890625 47.703125 
L 2.296875 47.703125 
L 2.296875 54.6875 
L 10.890625 54.6875 
L 10.890625 58.5 
Q 10.890625 67.625 15.140625 71.796875 
Q 19.390625 75.984375 28.609375 75.984375 
z
" id="DejaVuSans-102"/>
      <path d="M 48.78125 52.59375 
L 48.78125 44.1875 
Q 44.96875 46.296875 41.140625 47.34375 
Q 37.3125 48.390625 33.40625 48.390625 
Q 24.65625 48.390625 19.8125 42.84375 
Q 14.984375 37.3125 14.984375 27.296875 
Q 14.984375 17.28125 19.8125 11.734375 
Q 24.65625 6.203125 33.40625 6.203125 
Q 37.3125 6.203125 41.140625 7.25 
Q 44.96875 8.296875 48.78125 10.40625 
L 48.78125 2.09375 
Q 45.015625 0.34375 40.984375 -0.53125 
Q 36.96875 -1.421875 32.421875 -1.421875 
Q 20.0625 -1.421875 12.78125 6.34375 
Q 5.515625 14.109375 5.515625 27.296875 
Q 5.515625 40.671875 12.859375 48.328125 
Q 20.21875 56 33.015625 56 
Q 37.15625 56 41.109375 55.140625 
Q 45.0625 54.296875 48.78125 52.59375 
z
" id="DejaVuSans-99"/>
      <path d="M 45.40625 27.984375 
Q 45.40625 37.75 41.375 43.109375 
Q 37.359375 48.484375 30.078125 48.484375 
Q 22.859375 48.484375 18.828125 43.109375 
Q 14.796875 37.75 14.796875 27.984375 
Q 14.796875 18.265625 18.828125 12.890625 
Q 22.859375 7.515625 30.078125 7.515625 
Q 37.359375 7.515625 41.375 12.890625 
Q 45.40625 18.265625 45.40625 27.984375 
z
M 54.390625 6.78125 
Q 54.390625 -7.171875 48.1875 -13.984375 
Q 42 -20.796875 29.203125 -20.796875 
Q 24.46875 -20.796875 20.265625 -20.09375 
Q 16.0625 -19.390625 12.109375 -17.921875 
L 12.109375 -9.1875 
Q 16.0625 -11.328125 19.921875 -12.34375 
Q 23.78125 -13.375 27.78125 -13.375 
Q 36.625 -13.375 41.015625 -8.765625 
Q 45.40625 -4.15625 45.40625 5.171875 
L 45.40625 9.625 
Q 42.625 4.78125 38.28125 2.390625 
Q 33.9375 0 27.875 0 
Q 17.828125 0 11.671875 7.65625 
Q 5.515625 15.328125 5.515625 27.984375 
Q 5.515625 40.671875 11.671875 48.328125 
Q 17.828125 56 27.875 56 
Q 33.9375 56 38.28125 53.609375 
Q 42.625 51.21875 45.40625 46.390625 
L 45.40625 54.6875 
L 54.390625 54.6875 
z
" id="DejaVuSans-103"/>
      <path d="M 45.40625 46.390625 
L 45.40625 75.984375 
L 54.390625 75.984375 
L 54.390625 0 
L 45.40625 0 
L 45.40625 8.203125 
Q 42.578125 3.328125 38.25 0.953125 
Q 33.9375 -1.421875 27.875 -1.421875 
Q 17.96875 -1.421875 11.734375 6.484375 
Q 5.515625 14.40625 5.515625 27.296875 
Q 5.515625 40.1875 11.734375 48.09375 
Q 17.96875 56 27.875 56 
Q 33.9375 56 38.25 53.625 
Q 42.578125 51.265625 45.40625 46.390625 
z
M 14.796875 27.296875 
Q 14.796875 17.390625 18.875 11.75 
Q 22.953125 6.109375 30.078125 6.109375 
Q 37.203125 6.109375 41.296875 11.75 
Q 45.40625 17.390625 45.40625 27.296875 
Q 45.40625 37.203125 41.296875 42.84375 
Q 37.203125 48.484375 30.078125 48.484375 
Q 22.953125 48.484375 18.875 42.84375 
Q 14.796875 37.203125 14.796875 27.296875 
z
" id="DejaVuSans-100"/>
      <path d="M 17.921875 72.90625 
L 17.921875 45.796875 
L 9.625 45.796875 
L 9.625 72.90625 
z
M 36.375 72.90625 
L 36.375 45.796875 
L 28.078125 45.796875 
L 28.078125 72.90625 
z
" id="DejaVuSans-34"/>
     </defs>
     <use xlink:href="#DejaVuSans-67"/>
     <use x="69.824219" xlink:href="#DejaVuSans-111"/>
     <use x="131.005859" xlink:href="#DejaVuSans-109"/>
     <use x="228.417969" xlink:href="#DejaVuSans-112"/>
     <use x="291.894531" xlink:href="#DejaVuSans-97"/>
     <use x="353.173828" xlink:href="#DejaVuSans-114"/>
     <use x="394.287109" xlink:href="#DejaVuSans-105"/>
     <use x="422.070312" xlink:href="#DejaVuSans-115"/>
     <use x="474.169922" xlink:href="#DejaVuSans-111"/>
     <use x="535.351562" xlink:href="#DejaVuSans-110"/>
     <use x="598.730469" xlink:href="#DejaVuSans-32"/>
     <use x="630.517578" xlink:href="#DejaVuSans-111"/>
     <use x="691.699219" xlink:href="#DejaVuSans-102"/>
     <use x="726.904297" xlink:href="#DejaVuSans-32"/>
     <use x="758.691406" xlink:href="#DejaVuSans-97"/>
     <use x="819.970703" xlink:href="#DejaVuSans-114"/>
     <use x="861.083984" xlink:href="#DejaVuSans-116"/>
     <use x="900.292969" xlink:href="#DejaVuSans-105"/>
     <use x="928.076172" xlink:href="#DejaVuSans-99"/>
     <use x="983.056641" xlink:href="#DejaVuSans-108"/>
     <use x="1010.839844" xlink:href="#DejaVuSans-101"/>
     <use x="1072.363281" xlink:href="#DejaVuSans-115"/>
     <use x="1124.462891" xlink:href="#DejaVuSans-32"/>
     <use x="1156.25" xlink:href="#DejaVuSans-116"/>
     <use x="1195.458984" xlink:href="#DejaVuSans-97"/>
     <use x="1256.738281" xlink:href="#DejaVuSans-103"/>
     <use x="1320.214844" xlink:href="#DejaVuSans-103"/>
     <use x="1383.691406" xlink:href="#DejaVuSans-101"/>
     <use x="1445.214844" xlink:href="#DejaVuSans-100"/>
     <use x="1508.691406" xlink:href="#DejaVuSans-32"/>
     <use x="1540.478516" xlink:href="#DejaVuSans-34"/>
     <use x="1586.474609" xlink:href="#DejaVuSans-109"/>
     <use x="1683.886719" xlink:href="#DejaVuSans-97"/>
     <use x="1745.166016" xlink:href="#DejaVuSans-108"/>
     <use x="1772.949219" xlink:href="#DejaVuSans-101"/>
     <use x="1834.472656" xlink:href="#DejaVuSans-32"/>
     <use x="1866.259766" xlink:href="#DejaVuSans-97"/>
     <use x="1927.539062" xlink:href="#DejaVuSans-110"/>
     <use x="1990.917969" xlink:href="#DejaVuSans-100"/>
     <use x="2054.394531" xlink:href="#DejaVuSans-32"/>
     <use x="2086.181641" xlink:href="#DejaVuSans-102"/>
     <use x="2121.386719" xlink:href="#DejaVuSans-101"/>
     <use x="2182.910156" xlink:href="#DejaVuSans-109"/>
     <use x="2280.322266" xlink:href="#DejaVuSans-97"/>
     <use x="2341.601562" xlink:href="#DejaVuSans-108"/>
     <use x="2369.384766" xlink:href="#DejaVuSans-101"/>
    </g>
   </g>
   <g id="legend_1">
    <g id="patch_192">
     <path d="M 122.2 90.66505 
L 188.673438 90.66505 
Q 190.673438 90.66505 190.673438 88.66505 
L 190.673438 60.3088 
Q 190.673438 58.3088 188.673438 58.3088 
L 122.2 58.3088 
Q 120.2 58.3088 120.2 60.3088 
L 120.2 88.66505 
Q 120.2 90.66505 122.2 90.66505 
z
" style="fill:#ffffff;opacity:0.8;stroke:#cccccc;stroke-linejoin:miter;"/>
    </g>
    <g id="patch_193">
     <path d="M 124.2 69.907238 
L 144.2 69.907238 
L 144.2 62.907238 
L 124.2 62.907238 
z
" style="fill:#1f77b4;"/>
    </g>
    <g id="text_20">
     <!-- male -->
     <g transform="translate(152.2 69.907238)scale(0.1 -0.1)">
      <use xlink:href="#DejaVuSans-109"/>
      <use x="97.412109" xlink:href="#DejaVuSans-97"/>
      <use x="158.691406" xlink:href="#DejaVuSans-108"/>
      <use x="186.474609" xlink:href="#DejaVuSans-101"/>
     </g>
    </g>
    <g id="patch_194">
     <path d="M 124.2 84.585363 
L 144.2 84.585363 
L 144.2 77.585363 
L 124.2 77.585363 
z
" style="fill:#ff7f0e;"/>
    </g>
    <g id="text_21">
     <!-- female -->
     <g transform="translate(152.2 84.585363)scale(0.1 -0.1)">
      <use xlink:href="#DejaVuSans-102"/>
      <use x="35.205078" xlink:href="#DejaVuSans-101"/>
      <use x="96.728516" xlink:href="#DejaVuSans-109"/>
      <use x="194.140625" xlink:href="#DejaVuSans-97"/>
      <use x="255.419922" xlink:href="#DejaVuSans-108"/>
      <use x="283.203125" xlink:href="#DejaVuSans-101"/>
     </g>
    </g>
   </g>
  </g>
 </g>
 <defs>
  <clipPath id="p253902391b">
   <rect height="342.0648" width="714.24" x="115.2" y="53.3088"/>
  </clipPath>
 </defs>
</svg>
